<?xml version="1.0" standalone="no"?><!DOCTYPE svg PUBLIC "-//W3C//DTD SVG 1.1//EN" "http://www.w3.org/Graphics/SVG/1.1/DTD/svg11.dtd"><svg t="1722092130745" class="icon" viewBox="0 0 1024 1024" version="1.1" xmlns="http://www.w3.org/2000/svg" p-id="8426" xmlns:xlink="http://www.w3.org/1999/xlink" width="81" height="81"><path d="M201.6 940.16c-20.48 0-39.68-7.68-53.76-22.4-29.44-29.44-29.44-78.08 0-107.52l286.08-286.08c3.2-3.2 7.68-3.2 10.88 0s3.2 7.68 0 10.88l-286.08 286.08c-23.68 23.68-23.68 62.72 0 86.4 11.52 11.52 26.88 17.92 42.88 17.92s31.36-6.4 42.88-17.92l261.76-261.76c3.2-3.2 7.68-3.2 10.88 0s3.2 7.68 0 10.88L256 917.76c-14.72 14.08-33.92 22.4-54.4 22.4zM608.64 561.28c-1.92 0-3.84-0.64-5.12-1.92-3.2-3.2-3.2-7.68 0-10.88l78.72-78.72c1.92-1.92 5.12-2.56 7.68-1.92 53.12 17.92 110.72 4.48 150.4-35.2 33.92-33.92 48.64-81.92 40.96-128.64l-85.76 85.76c-1.92 1.92-4.48 2.56-7.04 1.92l-85.76-23.04c-2.56-0.64-4.48-2.56-5.12-5.12l-23.04-85.76c-0.64-2.56 0-5.12 1.92-7.04L761.6 184.32c-46.72-8.32-94.72 7.04-128.64 40.96-39.68 39.68-53.12 97.28-35.2 150.4 0.64 2.56 0 5.76-1.92 7.68l-102.4 102.4c-3.2 3.2-7.68 3.2-10.88 0s-3.2-7.68 0-10.88l99.2-99.2c-17.28-57.6-1.92-119.04 40.32-161.28 40.96-40.96 101.12-56.96 156.8-41.6 2.56 0.64 4.48 2.56 5.12 5.12 0.64 2.56 0 5.12-1.92 7.04l-92.16 92.16 20.48 76.8 76.8 20.48 92.16-92.16c1.92-1.92 4.48-2.56 7.04-1.92 2.56 0.64 4.48 2.56 5.12 5.12 15.36 55.68-0.64 115.84-41.6 156.8-42.24 42.88-104.32 57.6-161.28 40.32L614.4 559.36c-1.92 1.28-3.84 1.92-5.76 1.92z" fill="#211D1C" p-id="8427"></path><path d="M201.6 905.6c-10.88 0-21.12-3.84-29.44-12.16-16-16.64-16-42.88 0-58.88 7.68-7.68 18.56-12.16 29.44-12.16 10.88 0 21.76 4.48 29.44 12.16 7.68 7.68 12.16 18.56 12.16 29.44 0 10.88-4.48 21.76-12.16 29.44-7.68 8.32-18.56 12.16-29.44 12.16z m0-68.48c-7.04 0-14.08 2.56-19.2 7.68-10.24 10.24-10.24 27.52 0 37.76 10.24 10.24 27.52 10.24 37.76 0 5.12-5.12 7.68-11.52 7.68-19.2 0-7.04-2.56-14.08-7.68-19.2-4.48-4.48-10.88-7.04-18.56-7.04zM584.96 537.6c-1.92 0-3.84-0.64-5.12-1.92-3.2-3.2-3.2-7.68 0-10.88l78.72-78.72c3.2-3.2 7.68-3.2 10.88 0s3.2 7.68 0 10.88L590.08 535.04c-1.28 1.28-3.2 2.56-5.12 2.56zM286.08 835.84c-1.92 0-3.84-0.64-5.12-1.92-3.2-3.2-3.2-7.68 0-10.88l201.6-201.6c3.2-3.2 7.68-3.2 10.88 0s3.2 7.68 0 10.88l-201.6 201.6c-1.92 1.28-3.84 1.92-5.76 1.92z" fill="#211D1C" p-id="8428"></path><path d="M817.92 936.32c-20.48 0-39.68-7.68-53.76-22.4L478.08 627.84c-16-16-16-42.24 0-58.24l49.28-49.28c16-16 42.24-16 58.24 0l286.08 286.08c29.44 29.44 29.44 78.08 0 107.52-14.08 14.08-33.28 22.4-53.76 22.4zM556.8 522.88c-6.4 0-13.44 2.56-18.56 7.68l-49.28 49.28c-10.24 10.24-10.24 26.88 0 37.12l286.08 286.08c11.52 11.52 26.88 17.92 42.88 17.92s31.36-6.4 42.88-17.92c23.68-23.68 23.68-62.72 0-86.4L575.36 530.56c-5.12-5.12-12.16-7.68-18.56-7.68z" fill="#00ABE0" p-id="8429"></path><path d="M842.24 892.16c-1.92 0-3.84-0.64-5.12-1.92-3.2-3.2-3.2-7.68 0-10.88 5.12-5.12 7.68-11.52 7.68-19.2 0-7.04-2.56-14.08-7.68-19.2L551.04 555.52c-3.2-3.2-3.2-7.68 0-10.88s7.68-3.2 10.88 0l286.08 286.08c7.68 7.68 12.16 18.56 12.16 29.44 0 10.88-4.48 21.76-12.16 29.44-1.92 1.28-3.84 2.56-5.76 2.56zM483.84 581.76c-1.92 0-3.84-0.64-5.12-1.92l-256-256-37.76-24.32c-0.64-0.64-1.92-1.28-2.56-1.92L130.56 217.6c-1.92-3.2-1.28-7.04 1.28-9.6L166.4 172.8c2.56-2.56 6.4-3.2 9.6-1.28L255.36 224c0.64 0.64 1.92 1.28 1.92 2.56l24.32 37.76 256 256c3.2 3.2 3.2 7.68 0 10.88l-48.64 48.64c-0.64 0.64-2.56 1.92-5.12 1.92zM194.56 286.72l37.12 23.68c0.64 0 0.64 0.64 1.28 1.28L483.84 563.2l37.76-37.76-250.88-251.52-1.28-1.28-23.68-37.12L172.8 188.16l-25.6 26.24 47.36 72.32z" fill="#00ABE0" p-id="8430"></path><path d="M506.24 556.16c-1.92 0-3.84-0.64-5.12-1.92l-255.36-256c-3.2-3.2-3.2-7.68 0-10.88s7.68-3.2 10.88 0L512 542.72c3.2 3.2 3.2 7.68 0 10.88-1.92 1.28-3.84 2.56-5.76 2.56z" fill="#00ABE0" p-id="8431"></path></svg>