<?xml version="1.0" standalone="no"?><!DOCTYPE svg PUBLIC "-//W3C//DTD SVG 1.1//EN" "http://www.w3.org/Graphics/SVG/1.1/DTD/svg11.dtd"><svg t="1722092525156" class="icon" viewBox="0 0 1024 1024" version="1.1" xmlns="http://www.w3.org/2000/svg" p-id="25903" xmlns:xlink="http://www.w3.org/1999/xlink" width="81" height="81"><path d="M255.488 926.208c-38.5536 0-69.9392-31.3856-69.9392-69.9392s31.3856-69.9392 69.9392-69.9392 69.9392 31.3856 69.9392 69.9392-31.3856 69.9392-69.9392 69.9392z m0-104.0384c-18.7904 0-34.0992 15.3088-34.0992 34.0992s15.3088 34.0992 34.0992 34.0992 34.0992-15.3088 34.0992-34.0992-15.2576-34.0992-34.0992-34.0992zM751.5648 270.336c-38.5536 0-69.9392-31.3856-69.9392-69.9392s31.3856-69.9392 69.9392-69.9392 69.9392 31.3856 69.9392 69.9392-31.3856 69.9392-69.9392 69.9392z m0-104.0384c-18.7904 0-34.0992 15.3088-34.0992 34.0992s15.3088 34.0992 34.0992 34.0992 34.0992-15.3088 34.0992-34.0992-15.3088-34.0992-34.0992-34.0992z" fill="#E2E5F1" p-id="25904"></path><path d="M766.7712 904.0384H670.72c-8.4992 0-15.36-6.8608-15.36-15.36s6.8608-15.36 15.36-15.36h96.0512c8.4992 0 15.36 6.8608 15.36 15.36s-6.8608 15.36-15.36 15.36z" fill="#FAC573" p-id="25905"></path><path d="M865.8432 767.8976l-326.0928 85.6064c-9.4208 2.4576-19.3536 2.5088-28.7744 0.1024l-336.2816-85.9136a57.40544 57.40544 0 0 1-43.2128-55.6544V314.9312c0-24.4736 23.1424-42.3936 46.848-36.2496l326.912 84.736c9.4208 2.4576 19.3536 2.4576 28.7744 0l327.8848-84.7872c23.7056-6.144 46.7968 11.776 46.7968 36.2496v397.4656c0 26.112-17.6128 48.896-42.8544 55.552z" fill="#7F9AFF" p-id="25906"></path><path d="M788.1216 302.6432s56.5248-5.632 56.5248 63.6928v321.4336c0 10.9568-7.3728 20.5312-17.9712 23.3472l-290.5088 77.312c-8.5504 2.304-17.5616 2.304-26.1632 0.1536L126.8224 690.688l19.8144 64.4608 381.6448 101.7856 367.5136-102.912 15.2576-39.5776 1.6896-403.712-50.8928-29.952-73.728 21.8624z" fill="#5078FF" p-id="25907"></path><path d="M525.1584 875.8272c-6.5024 0-12.9536-0.8192-19.3024-2.4064l-336.2816-85.9136a77.88032 77.88032 0 0 1-58.624-75.4688V314.9312c0-18.0736 8.192-34.7648 22.4768-45.824 14.2848-11.0592 32.4608-14.7968 49.9712-10.24l326.912 84.736c6.0416 1.5872 12.4416 1.5872 18.5344 0l327.8848-84.7872c17.5104-4.5056 35.6864-0.768 49.9712 10.2912a57.5488 57.5488 0 0 1 22.4768 45.824v397.4656c0 35.3792-23.9104 66.3552-58.112 75.3664l-326.0928 85.6064c-6.5024 1.6384-13.1584 2.4576-19.8144 2.4576zM168.8576 297.9328c-3.6864 0-7.3216 1.2288-10.3424 3.5328-4.1984 3.2256-6.6048 8.1408-6.6048 13.4144v397.1072c0 16.896 11.4176 31.5904 27.8016 35.7888l336.2816 85.9136c6.0928 1.536 12.4928 1.536 18.5344-0.0512l326.144-85.6064c16.2304-4.2496 27.5456-18.944 27.5456-35.7376V314.88c0-5.2736-2.4064-10.1888-6.5536-13.4144a16.896 16.896 0 0 0-14.6432-3.0208L539.136 383.2832c-12.8 3.328-26.3168 3.2768-39.0656 0L173.1584 298.496a17.7152 17.7152 0 0 0-4.3008-0.5632z" fill="#211D38" p-id="25908"></path><path d="M520.5504 742.6048c-11.3152 0-20.48-9.1648-20.48-20.48V495.9744c0-11.3152 9.1648-20.48 20.48-20.48s20.48 9.1648 20.48 20.48v226.1504c0 11.3152-9.1648 20.48-20.48 20.48zM520.1408 281.6512c-6.4512 0-12.8512-0.8192-19.1488-2.4064L159.9488 192.8704a20.51072 20.51072 0 0 1-14.848-24.8832 20.51072 20.51072 0 0 1 24.8832-14.848l341.0432 86.4256c6.144 1.536 12.544 1.4848 18.6368-0.1024l321.9456-86.2208c10.9056-2.9184 22.1696 3.584 25.088 14.4896 2.9184 10.9056-3.584 22.1696-14.4896 25.088L540.3136 279.04c-6.6048 1.7408-13.3632 2.6112-20.1728 2.6112z" fill="#211D38" p-id="25909"></path><path d="M174.0288 616.704a12.8 12.8 0 0 1-12.8-12.8V334.1312c0-7.0144 3.2256-13.4656 8.8064-17.664s12.6976-5.5296 19.4048-3.584a12.81536 12.81536 0 0 1-2.6112 25.088v265.9328a12.8 12.8 0 0 1-12.8 12.8zM286.2592 367.36c-1.28 0-2.5088-0.2048-3.7888-0.5632l-54.8352-16.9472a12.80512 12.80512 0 1 1 7.5776-24.4736l54.8352 16.9472a12.80512 12.80512 0 0 1-3.7888 25.0368z" fill="#FFFFFF" p-id="25910"></path><path d="M320.5632 118.8864a12.65664 12.65664 0 0 0-16.7424-6.4l-8.448 3.7888-3.7888-8.448a12.65664 12.65664 0 0 0-16.7424-6.4 12.6976 12.6976 0 0 0-6.4 16.7424l3.7888 8.448-8.448 3.7888a12.6976 12.6976 0 0 0-6.4 16.7424 12.61568 12.61568 0 0 0 16.7424 6.3488l8.448-3.7888 3.7888 8.448a12.61568 12.61568 0 0 0 16.7424 6.3488 12.6976 12.6976 0 0 0 6.4-16.7424l-3.7888-8.448 8.448-3.7888c6.4-2.7648 9.2672-10.2912 6.4-16.64z" fill="#FBD9A0" p-id="25911"></path></svg>