<?xml version="1.0" standalone="no"?><!DOCTYPE svg PUBLIC "-//W3C//DTD SVG 1.1//EN" "http://www.w3.org/Graphics/SVG/1.1/DTD/svg11.dtd"><svg t="1722092725513" class="icon" viewBox="0 0 1024 1024" version="1.1" xmlns="http://www.w3.org/2000/svg" p-id="33794" xmlns:xlink="http://www.w3.org/1999/xlink" width="81" height="81"><path d="M648.544 745.824L921.6 472.768H609.28L492.544 589.856l156 156zM609.28 5.12L102.4 512l156 156L921.6 5.12z" fill="#42A5F5" opacity=".8" p-id="33795"></path><path d="M558.752 878.944l-44.384 44.704-21.856-21.856v0.352l116.736 116.736h312.32L653.952 751.264l69.984 70.656z" fill="#0D47A1" p-id="33796"></path><path d="M336.736 746.112L492.64 590.176 648.576 746.08 492.672 902.016 336.736 746.112z" fill="#42A5F5" p-id="33797"></path><path d="M514.4 923.648l44.384-44.704-66.208 22.88z" fill="#0D47A1" p-id="33798"></path><path d="M514.4 923.648l44.384-44.704-66.208 22.88z m134.144-177.824z m-156 155.968z m156-155.968v0.352z m0 0z" p-id="33799"></path><path d="M648.544 746.144l21.504 21.504-111.264 111.264L724 821.92l-75.424-76.128z" fill="#0D47A1" p-id="33800"></path><path d="M648.544 746.144l21.504 21.504-111.264 111.264L724 821.92l-75.424-76.128z m0 0l-156 155.648z m0 0l-156 155.648z" p-id="33801"></path><path d="M492.544 901.792l66.208-22.88 111.264-111.264-21.504-21.504-156 155.648z" fill="#0D47A1" p-id="33802"></path><path d="M492.544 901.792l66.208-22.88 111.264-111.264-21.504-21.504-156 155.648z" p-id="33803"></path><path d="M492.544 901.792l66.208-22.88 111.264-111.264-21.504-21.504-156 155.648z" p-id="33804"></path></svg>